<?xml version="1.0" standalone="no"?>
<!DOCTYPE svg PUBLIC "-//W3C//DTD SVG 20010904//EN"
 "http://www.w3.org/TR/2001/REC-SVG-20010904/DTD/svg10.dtd">
<svg version="1.0" xmlns="http://www.w3.org/2000/svg"
 width="200.000000pt" height="200.000000pt" viewBox="0 0 200.000000 200.000000"
 preserveAspectRatio="xMidYMid meet">

<g transform="translate(0.000000,200.000000) scale(0.100000,-0.100000)"
fill="#000000" stroke="none">
<path d="M910 1528 c-36 -11 -67 -22 -69 -23 -2 -2 6 -19 18 -38 l21 -35 60
16 c55 15 65 15 119 0 l60 -16 24 37 25 37 -82 22 c-94 26 -92 26 -176 0z"/>
<path d="M756 1486 c-46 -14 -54 -31 -55 -108 l-1 -58 45 0 c36 0 45 3 45 17
0 14 3 13 16 -5 8 -12 13 -26 10 -31 -3 -4 3 -16 13 -25 17 -15 21 -14 65 20
49 37 53 53 20 68 -11 5 -39 37 -63 72 -25 35 -47 64 -50 63 -3 -1 -24 -7 -45
-13z"/>
<path d="M1150 1437 c-25 -35 -53 -68 -64 -73 -33 -15 -29 -31 20 -68 44 -34
48 -35 65 -20 10 9 16 21 13 25 -3 5 2 19 10 31 l16 22 0 -22 c0 -19 5 -22 45
-22 l45 0 0 59 c0 79 -12 107 -47 114 -15 3 -35 8 -44 12 -11 4 -28 -13 -59
-58z"/>
<path d="M521 1314 c-46 -38 -41 -54 17 -51 46 2 47 1 47 -28 0 -26 -6 -31
-44 -46 -42 -15 -43 -17 -24 -28 36 -18 95 -12 138 14 28 17 55 25 88 25 l48
0 -3 48 -3 47 -60 5 c-34 3 -71 13 -85 23 -36 25 -83 22 -119 -9z"/>
<path d="M1348 1316 c-28 -20 -49 -26 -87 -26 l-51 0 0 -50 0 -50 50 0 c31 0
66 -8 90 -20 55 -28 101 -26 134 6 39 40 34 53 -21 51 -47 -2 -48 -1 -48 28 0
27 5 32 43 44 54 17 43 32 -25 38 -39 4 -55 0 -85 -21z"/>
<path d="M895 1284 c-48 -37 -52 -53 -18 -68 11 -5 31 -25 44 -44 52 -76 99
-79 151 -7 18 24 38 44 44 45 6 0 18 7 25 16 12 14 9 20 -21 46 -54 46 -66 50
-85 32 -9 -9 -14 -22 -11 -30 8 -21 -21 -39 -39 -24 -8 7 -13 16 -10 20 7 12
-5 38 -20 44 -8 3 -34 -11 -60 -30z"/>
<path d="M730 1163 c0 -35 50 -124 97 -174 54 -58 135 -109 173 -109 67 0 200
116 245 213 34 72 33 77 -19 77 -42 0 -45 -2 -56 -34 -24 -74 -138 -174 -184
-162 -40 10 -123 93 -151 151 -25 53 -27 55 -65 55 -31 0 -40 -4 -40 -17z"/>
<path d="M448 595 c5 -69 22 -73 22 -5 0 41 3 50 18 50 25 0 42 -20 42 -50 0
-14 -5 -31 -12 -38 -7 -7 -9 -12 -6 -12 15 0 38 33 38 55 0 30 -35 55 -75 55
l-30 0 3 -55z"/>
<path d="M927 643 c-16 -15 -5 -44 23 -58 33 -17 38 -32 14 -42 -11 -4 -22 1
-30 12 -12 16 -14 17 -14 3 0 -23 16 -31 46 -24 36 9 32 46 -7 69 -26 14 -29
20 -19 32 12 15 0 22 -13 8z"/>
<path d="M966 636 c3 -9 11 -16 16 -16 13 0 5 23 -10 28 -7 2 -10 -2 -6 -12z"/>
<path d="M1518 628 c-8 -22 7 -91 20 -94 7 -1 8 0 2 3 -12 6 -13 70 -1 75 5 2
3 8 -4 15 -10 9 -15 9 -17 1z"/>
<path d="M582 608 c-18 -18 -14 -56 7 -68 25 -13 42 -13 19 1 -11 6 -18 22
-18 40 0 24 4 30 18 27 9 -2 16 -10 15 -16 -2 -7 2 -12 8 -12 6 0 9 8 7 18 -4
21 -39 27 -56 10z"/>
<path d="M670 579 c0 -22 5 -39 10 -39 6 0 10 13 10 29 0 17 5 33 10 36 6 3
10 1 10 -5 0 -6 5 -8 10 -5 16 10 3 23 -25 23 -22 0 -25 -5 -25 -39z"/>
<path d="M750 582 c0 -23 3 -42 8 -42 9 0 8 68 -2 77 -3 3 -6 -12 -6 -35z"/>
<path d="M794 607 c13 -10 17 -22 14 -40 -3 -15 -1 -27 4 -27 5 0 8 17 6 37
-2 29 -8 39 -23 41 -19 4 -20 3 -1 -11z"/>
<path d="M1020 615 c-9 -42 8 -85 35 -85 6 0 4 4 -4 9 -8 5 -17 26 -21 47 -4
22 -9 35 -10 29z"/>
<path d="M1080 618 c-6 -27 -2 -82 6 -85 6 -2 8 13 6 34 -4 40 -9 63 -12 51z"/>
<path d="M1128 561 c-2 -43 1 -61 9 -61 7 0 10 6 7 14 -3 9 5 15 25 19 17 4
32 14 36 26 8 26 -11 61 -32 61 -15 0 -15 -1 1 -13 24 -18 18 -62 -9 -62 -16
0 -20 7 -21 32 -1 58 -12 46 -16 -16z"/>
<path d="M1230 560 c0 -33 4 -60 10 -60 6 0 10 27 10 60 0 33 -4 60 -10 60 -6
0 -10 -27 -10 -60z"/>
<path d="M1279 604 c17 -12 21 -22 16 -41 -4 -16 -2 -22 5 -18 26 16 4 75 -29
75 -11 0 -8 -5 8 -16z"/>
<path d="M1348 609 c-10 -5 -18 -18 -18 -29 0 -21 25 -50 43 -50 7 0 4 5 -5
11 -22 13 -23 58 -2 66 21 8 36 -16 29 -45 -4 -15 -2 -21 5 -17 14 8 13 48 -2
63 -14 14 -27 15 -50 1z"/>
<path d="M1440 580 c0 -22 5 -40 10 -40 6 0 10 18 10 40 0 22 -4 40 -10 40 -5
0 -10 -18 -10 -40z"/>
<path d="M1476 605 c4 -8 8 -15 10 -15 2 0 4 7 4 15 0 8 -4 15 -10 15 -5 0 -7
-7 -4 -15z"/>
<path d="M858 573 c6 -2 18 -2 25 0 6 3 1 5 -13 5 -14 0 -19 -2 -12 -5z"/>
</g>
</svg>
