<?xml version="1.0" standalone="no"?>
<!DOCTYPE svg PUBLIC "-//W3C//DTD SVG 20010904//EN"
 "http://www.w3.org/TR/2001/REC-SVG-20010904/DTD/svg10.dtd">
<svg version="1.0" xmlns="http://www.w3.org/2000/svg"
 width="500.000000pt" height="500.000000pt" viewBox="0 0 500.000000 500.000000"
 preserveAspectRatio="xMidYMid meet">

<g transform="translate(0.000000,500.000000) scale(0.100000,-0.100000)"
fill="#000000" stroke="none">
<path d="M2632 3264 c-24 -17 -30 -62 -10 -82 10 -10 10 -17 1 -31 -8 -13 -8
-33 2 -79 11 -56 11 -62 -4 -62 -45 0 -56 -60 -16 -86 14 -9 22 -20 19 -25 -3
-5 2 -9 11 -9 8 0 20 -10 25 -22 12 -31 38 -184 49 -291 7 -71 13 -93 32 -113
27 -29 43 -30 69 -4 24 24 26 91 10 284 -6 66 -9 120 -8 121 2 1 24 0 50 -3
43 -4 49 -8 71 -45 13 -23 55 -115 93 -204 l69 -163 47 0 c43 0 48 3 54 26 14
54 -35 187 -119 326 l-35 57 97 -6 c111 -7 126 1 126 67 0 33 -7 44 -54 86
-140 127 -421 274 -524 274 -18 0 -43 -7 -55 -16z m283 -200 c50 -24 101 -53
115 -64 l25 -19 -55 6 c-30 3 -66 14 -80 23 -39 27 -64 32 -86 15 -28 -21 -31
-19 -43 30 -6 25 -16 45 -21 45 -6 0 -10 5 -10 11 0 18 59 0 155 -47z"/>
<path d="M1133 3248 c-13 -6 -23 -14 -23 -18 0 -5 -11 -11 -24 -14 -13 -3 -26
-12 -29 -20 -3 -8 16 -121 44 -252 27 -130 49 -238 49 -240 0 -2 -13 -1 -30 2
-24 5 -35 1 -61 -25 -25 -26 -30 -37 -24 -59 10 -39 19 -47 90 -78 46 -20 65
-34 70 -51 9 -36 48 -56 92 -48 50 10 91 10 188 0 104 -10 181 6 237 49 87 66
86 148 -5 302 -42 71 -85 121 -217 255 -112 112 -180 173 -211 188 -49 23
-110 26 -146 9z m11 -365 c26 -101 49 -191 53 -200 5 -14 3 -15 -7 -6 -12 11
-81 270 -96 357 -13 81 5 27 50 -151z m181 112 c88 -56 212 -181 277 -280 33
-50 58 -98 56 -110 -2 -14 -17 -23 -53 -33 -43 -13 -59 -12 -134 2 -142 28
-130 13 -168 226 -18 102 -35 195 -38 208 -3 12 -3 22 0 22 3 0 30 -16 60 -35z"/>
<path d="M3410 3216 c-5 -13 -13 -25 -18 -27 -6 -3 -12 -112 -15 -269 -2 -146
-1 -209 2 -140 7 125 7 125 9 34 1 -50 5 -153 9 -228 6 -130 7 -138 29 -148
27 -12 60 -5 93 21 l24 18 -2 249 c-1 157 1 245 7 239 22 -23 232 -409 232
-427 0 -30 27 -86 47 -96 13 -7 28 -6 50 3 31 13 31 15 39 102 11 132 -21 458
-61 631 -10 42 -28 25 -22 -20 17 -112 16 -116 -7 -29 -23 91 -35 111 -66 111
-18 0 -29 -8 -53 -36 -17 -20 -16 -27 12 -170 49 -248 50 -244 -19 -115 -82
154 -161 273 -198 299 -41 30 -80 29 -92 -2z m447 -223 c-3 -10 -5 -4 -5 12 0
17 2 24 5 18 2 -7 2 -21 0 -30z m10 -60 c-3 -10 -5 -4 -5 12 0 17 2 24 5 18 2
-7 2 -21 0 -30z m10 -70 c-3 -10 -5 -2 -5 17 0 19 2 27 5 18 2 -10 2 -26 0
-35z m10 -75 c-2 -13 -4 -5 -4 17 -1 22 1 32 4 23 2 -10 2 -28 0 -40z m10 -90
c-2 -13 -4 -5 -4 17 -1 22 1 32 4 23 2 -10 2 -28 0 -40z m10 -115 c-2 -16 -4
-3 -4 27 0 30 2 43 4 28 2 -16 2 -40 0 -55z m-384 -23 c4 -42 3 -58 -3 -45 -8
19 -14 123 -6 114 2 -2 6 -33 9 -69z"/>
<path d="M2169 3210 c-96 -16 -317 -86 -306 -96 2 -3 17 1 33 7 16 6 106 31
199 54 156 40 187 54 74 35z"/>
<path d="M2165 3171 c-104 -26 -220 -58 -257 -70 -95 -32 -127 -78 -98 -143 6
-13 21 -128 33 -257 19 -190 26 -236 40 -246 9 -7 17 -17 17 -23 0 -37 71 -32
171 12 91 40 228 86 333 111 54 14 107 32 117 41 23 21 24 54 4 122 -17 56
-44 82 -86 82 -33 0 -173 -46 -331 -110 -112 -44 -118 -46 -118 -26 0 12 -3
30 -6 42 -5 17 5 25 63 52 99 45 174 70 288 93 142 29 163 55 104 130 -27 35
-35 39 -75 39 -57 0 -173 -32 -293 -81 -97 -40 -115 -40 -109 1 4 28 66 54
293 121 93 28 172 55 176 60 8 14 -1 67 -15 78 -26 22 -71 17 -251 -28z m15
-334 c-120 -53 -154 -66 -158 -62 -11 11 14 24 88 48 80 27 111 33 70 14z
m-163 -398 c-21 -11 -46 -19 -55 -17 -10 2 1 11 28 20 62 22 73 21 27 -3z"/>
<path d="M3364 3065 c0 -55 1 -76 3 -47 2 29 2 74 0 100 -2 26 -3 2 -3 -53z"/>
<path d="M2837 2765 c3 -49 9 -115 14 -145 6 -40 7 -27 3 50 -3 58 -9 123 -14
145 -6 27 -7 11 -3 -50z"/>
<path d="M3383 2585 c0 -27 2 -38 4 -22 2 15 2 37 0 50 -2 12 -4 0 -4 -28z"/>
<path d="M2605 2252 c-68 -14 -54 -92 16 -92 43 0 69 17 69 44 0 36 -39 57
-85 48z m50 -47 c0 -23 -30 -32 -50 -15 -21 18 -7 42 24 38 18 -2 26 -9 26
-23z"/>
<path d="M2074 2235 c-8 -21 4 -35 31 -35 13 0 27 -5 31 -12 5 -8 -3 -9 -30
-5 -27 4 -36 3 -33 -6 6 -19 81 -21 97 -2 17 20 4 34 -42 45 l-33 8 38 1 c53
1 46 21 -8 21 -31 0 -47 -5 -51 -15z"/>
<path d="M2190 2217 c0 -42 15 -57 56 -57 40 0 64 22 64 61 0 22 -5 29 -19 29
-15 0 -21 -8 -23 -32 -2 -25 -8 -33 -23 -33 -15 0 -21 8 -23 33 -4 44 -32 44
-32 -1z"/>
<path d="M2320 2206 c0 -34 4 -46 15 -46 8 0 15 6 15 14 0 10 13 16 38 18 32
3 37 6 37 28 0 23 -4 25 -52 28 l-53 3 0 -45z m80 14 c0 -5 -11 -10 -25 -10
-14 0 -25 5 -25 10 0 6 11 10 25 10 14 0 25 -4 25 -10z"/>
<path d="M2440 2206 c0 -34 4 -46 15 -46 8 0 15 6 15 14 0 10 13 16 38 18 32
3 37 6 37 28 0 23 -4 25 -52 28 l-53 3 0 -45z m80 14 c0 -5 -11 -10 -25 -10
-14 0 -25 5 -25 10 0 6 11 10 25 10 14 0 25 -4 25 -10z"/>
<path d="M2700 2205 c0 -38 3 -45 20 -45 11 0 20 7 20 15 0 8 6 15 14 15 7 0
19 -7 26 -15 7 -8 22 -15 34 -15 20 1 20 1 2 15 -16 12 -17 17 -6 30 24 29 5
45 -55 45 l-55 0 0 -45z m85 15 c-3 -5 -15 -10 -26 -10 -10 0 -19 5 -19 10 0
6 12 10 26 10 14 0 23 -4 19 -10z"/>
<path d="M2830 2241 c0 -5 9 -11 20 -14 15 -4 20 -14 20 -36 0 -21 5 -31 15
-31 10 0 15 11 15 35 0 24 5 35 15 35 8 0 15 5 15 10 0 6 -22 10 -50 10 -27 0
-50 -4 -50 -9z"/>
<path d="M2286 2019 c-32 -25 -56 -69 -56 -104 0 -35 24 -79 56 -104 25 -20
39 -21 215 -21 l188 0 35 31 c60 52 61 126 1 186 l-33 33 -190 0 c-177 0 -191
-1 -216 -21z m428 -18 c52 -49 51 -124 -4 -173 l-30 -28 -179 0 c-178 0 -180
0 -210 26 -58 48 -58 125 0 177 l31 28 183 -3 c179 -3 184 -4 209 -27z"/>
<path d="M2394 1948 c-5 -8 -2 -9 9 -5 21 8 22 -6 2 -23 -23 -19 -18 -30 13
-29 23 2 24 2 4 6 l-22 4 21 18 c13 10 19 23 15 29 -9 15 -33 15 -42 0z"/>
<path d="M2452 1944 c-13 -24 -3 -54 18 -54 10 0 20 8 23 19 5 20 -9 51 -23
51 -5 0 -13 -7 -18 -16z m28 -19 c0 -14 -4 -25 -10 -25 -5 0 -10 11 -10 25 0
14 5 25 10 25 6 0 10 -11 10 -25z"/>
<path d="M2504 1948 c-5 -8 -2 -9 9 -5 24 9 31 -10 7 -23 -28 -15 -25 -30 8
-29 23 0 24 2 7 8 -18 7 -18 8 -1 18 12 7 17 17 13 27 -7 19 -33 21 -43 4z"/>
<path d="M2564 1949 c-5 -9 -2 -10 10 -6 14 5 17 3 12 -8 -3 -8 -1 -15 4 -15
6 0 10 -5 10 -11 0 -7 -9 -9 -21 -6 -16 4 -19 3 -11 -5 18 -18 41 -1 39 29 -3
29 -29 43 -43 22z"/>
</g>
</svg>
